<?xml version="1.0" standalone="no"?>
<!DOCTYPE svg PUBLIC "-//W3C//DTD SVG 20010904//EN"
 "http://www.w3.org/TR/2001/REC-SVG-20010904/DTD/svg10.dtd">
<svg version="1.0" xmlns="http://www.w3.org/2000/svg"
 width="700.000000pt" height="700.000000pt" viewBox="0 0 700.000000 700.000000"
 preserveAspectRatio="xMidYMid meet">
<metadata>
Created by potrace 1.11, written by Peter Selinger 2001-2013
</metadata>
<g transform="translate(0.000000,700.000000) scale(0.100000,-0.100000)"
fill="#000000" stroke="none">
<path d="M3477 6374 c-1 -1 -94 -5 -207 -8 -611 -18 -943 -90 -1083 -234 -109
-112 -115 -257 -17 -454 33 -66 178 -293 212 -333 30 -34 312 -430 382 -535
268 -403 407 -739 456 -1100 11 -79 15 -323 6 -380 -2 -14 -7 -52 -11 -85 -16
-133 -130 -510 -166 -550 -5 -5 -9 -14 -9 -20 0 -22 -144 -281 -229 -415 -85
-132 -132 -199 -395 -560 -282 -386 -351 -545 -306 -704 15 -55 73 -131 130
-171 87 -61 320 -130 500 -150 127 -13 166 -17 181 -20 144 -27 1149 -27 1424
0 188 19 231 25 350 50 274 59 404 136 455 271 63 169 -16 349 -349 799 -289
389 -417 587 -537 830 -328 666 -305 1255 76 1940 92 165 200 327 427 637 264
362 329 465 379 608 48 137 17 271 -84 360 -90 80 -296 150 -512 175 -25 3
-54 7 -65 9 -19 4 -100 11 -235 21 -137 11 -765 26 -773 19z m656 -168 c510
-30 777 -94 856 -205 54 -75 20 -194 -109 -390 -54 -83 -212 -302 -348 -486
-68 -91 -263 -389 -316 -483 -137 -242 -248 -517 -290 -718 -35 -167 -48 -278
-48 -420 -1 -445 143 -860 477 -1375 68 -104 354 -507 387 -543 35 -39 171
-247 205 -312 91 -176 89 -255 -11 -323 -71 -49 -228 -97 -381 -117 -33 -4
-62 -8 -65 -9 -3 -1 -41 -5 -85 -9 -44 -5 -96 -10 -115 -12 -214 -23 -1166
-23 -1310 0 -14 2 -59 7 -100 11 -106 9 -223 26 -326 49 -96 21 -197 63 -243
102 -44 37 -59 71 -56 124 9 114 75 230 334 583 215 294 319 445 413 602 217
363 324 648 373 990 13 91 14 425 1 495 -56 301 -119 487 -251 745 -126 246
-246 430 -545 835 -219 296 -282 400 -314 511 -28 99 -9 148 78 205 41 28 136
64 207 80 45 10 174 32 219 38 151 19 216 24 400 32 91 3 166 7 167 8 6 5 700
-2 796 -8z"/>
<path d="M3152 4938 c-54 -15 -69 -73 -27 -106 22 -17 40 -19 174 -18 131 1
151 3 170 20 12 11 21 30 21 43 0 27 -32 63 -57 64 -110 4 -259 2 -281 -3z"/>
<path d="M3827 4941 c-44 -13 -62 -74 -31 -105 20 -20 5 -19 178 -21 145 -2
151 -1 173 21 13 13 23 32 23 44 0 26 -34 60 -62 61 -103 3 -270 3 -281 0z"/>
<path d="M3286 4699 c-43 -7 -52 -15 -61 -51 -5 -21 -1 -33 17 -51 23 -23 30
-25 129 -22 125 3 114 1 133 21 22 21 20 67 -3 88 -20 18 -144 27 -215 15z"/>
<path d="M3810 4702 c-66 -10 -84 -79 -31 -118 9 -7 55 -11 123 -10 94 2 110
4 122 21 25 33 25 55 3 81 -20 22 -30 25 -107 27 -47 1 -96 0 -110 -1z"/>
<path d="M3385 4462 c-39 -5 -65 -29 -65 -61 0 -54 30 -69 136 -66 90 2 101 6
114 41 12 32 -3 70 -31 79 -25 8 -109 12 -154 7z"/>
<path d="M3758 4462 c-64 -5 -88 -63 -45 -106 21 -21 32 -23 110 -22 68 2 90
6 106 21 26 22 27 56 4 84 -18 21 -86 30 -175 23z"/>
<path d="M3457 4215 c-9 -6 -21 -24 -26 -38 -9 -22 -7 -31 12 -53 l22 -26 168
0 c147 -1 170 1 187 17 26 24 25 67 -1 91 -19 17 -38 19 -184 20 -109 0 -168
-3 -178 -11z"/>
<path d="M3479 3966 c-25 -26 -24 -68 0 -91 17 -15 40 -17 158 -17 129 0 138
1 155 22 24 30 23 63 -3 86 -18 17 -38 19 -156 20 -124 1 -137 -1 -154 -20z"/>
<path d="M3482 3730 c-28 -26 -28 -71 -2 -95 18 -16 38 -18 156 -18 114 1 139
4 155 19 26 23 24 68 -3 94 -20 18 -35 20 -153 20 -118 0 -133 -2 -153 -20z"/>
<path d="M3495 3497 c-27 -14 -35 -27 -35 -58 0 -51 23 -59 173 -59 124 0 139
2 157 20 24 24 25 57 4 85 -13 18 -28 20 -147 21 -79 1 -141 -2 -152 -9z"/>
<path d="M3500 3263 c-27 -12 -40 -31 -40 -62 0 -52 26 -61 177 -61 120 0 135
2 153 20 24 24 25 57 4 85 -13 18 -28 20 -147 22 -73 1 -139 0 -147 -4z"/>
<path d="M3453 3010 c-32 -29 -33 -61 -6 -92 14 -16 37 -18 182 -18 135 0 171
3 189 16 25 18 29 60 8 90 -13 17 -30 19 -183 22 -160 3 -169 2 -190 -18z"/>
<path d="M3412 2769 c-29 -26 -29 -73 0 -93 19 -13 58 -16 225 -16 190 0 204
1 223 20 20 20 26 56 12 76 -19 29 -55 34 -244 34 -181 0 -196 -2 -216 -21z"/>
<path d="M3375 2538 c-41 -23 -47 -66 -15 -98 19 -19 33 -20 273 -20 272 0
280 1 292 52 5 21 1 33 -19 52 l-25 26 -243 0 c-162 -1 -250 -4 -263 -12z"/>
<path d="M3301 2289 c-24 -26 -21 -67 7 -89 18 -15 57 -17 324 -17 167 0 311
4 321 9 39 20 41 85 3 110 -6 4 -151 8 -323 8 -304 0 -313 -1 -332 -21z"/>
<path d="M3216 2055 c-35 -36 -27 -88 17 -104 12 -4 198 -8 414 -7 351 1 394
3 409 18 22 21 21 64 -1 88 -17 19 -33 20 -421 20 -345 0 -405 -2 -418 -15z"/>
<path d="M3135 1832 c-67 -4 -82 -11 -95 -41 -13 -33 -2 -64 28 -79 9 -5 268
-8 574 -8 618 1 592 -2 590 66 -1 36 -25 59 -62 60 -89 2 -1003 4 -1035 2z"/>
<path d="M2855 1592 c-110 -3 -121 -7 -134 -44 -9 -25 -8 -36 4 -55 9 -12 21
-24 28 -24 6 -1 403 -3 880 -4 601 -1 875 2 890 9 42 22 37 101 -7 112 -21 5
-1514 11 -1661 6z"/>
<path d="M2520 1352 c-35 -5 -60 -31 -60 -61 0 -31 8 -45 35 -58 13 -6 433 -9
1146 -9 1094 1 1128 2 1148 20 26 23 27 56 3 86 l-18 23 -1115 1 c-613 0
-1125 -1 -1139 -2z"/>
<path d="M2625 1102 c-43 -9 -58 -64 -27 -101 l17 -22 885 0 885 1 18 21 c9
12 17 32 17 44 0 21 -21 53 -38 57 -17 3 -1739 3 -1757 0z"/>
</g>
</svg>
