<svg version="1" xmlns="http://www.w3.org/2000/svg" width="484" height="484" viewBox="0 0 363.000000 363.000000"><path d="M90 60.5c0 55.5-.1 54.1 5.3 62.3 1.2 1.9 11.9 11.3 23.7 20.9 11.8 9.6 22.5 18.6 23.8 20 2.1 2.3 2.2 3.2 2.2 18.3 0 8.7-.3 16.5-.6 17.4-.3.8-10.3 9.4-22.2 19-12 9.6-22.7 18.5-23.9 19.8-1.2 1.2-3.5 4.9-5.2 8.2l-3.1 5.8V356h185v-49.3c0-54.2-.1-54.9-6.1-64-2.1-3.3-10-10.4-24.3-21.9-11.6-9.4-22.1-18.1-23.3-19.5-2.2-2.3-2.3-3.2-2.3-18.7 0-11.4.4-16.7 1.3-17.9.6-.9 10.9-9.5 22.7-19 11.8-9.4 22.9-19.1 24.6-21.4 1.8-2.3 4.2-6.7 5.3-9.8 2-5.4 2.1-7.4 2.1-55.5V9H90v51.5zm165.2 6.7c-.2 33.6-.5 39.6-1.9 42.6-1.1 2.3-8.9 9.3-25 22.4-30.4 24.7-28.8 21.9-28.8 50.3v21l3 5.5c2.6 4.6 6.4 8.2 25.9 24 15.1 12.2 23.6 19.8 24.7 22 1.6 3.2 1.9 7.4 2.1 42.8l.3 39.2H107.9l.3-38.8c.3-35.7.4-39 2.2-42.5 1.3-2.6 5.8-7 13.9-13.5 30.4-24.4 35.3-28.8 37.8-33.8 2.3-4.7 2.4-5.7 2.4-25.9 0-29.3 2.6-25.1-34.6-55.1-12.6-10.2-18.1-15.3-19.5-18-1.8-3.6-1.9-6.8-2.1-42.7L108 28h147.5l-.3 39.2z"/><path d="M113 98.5v2.5h27v-5h-27v2.5zM220 98.5v2.5h31v-5h-31v2.5zM113 108.5v2.5h38v-5h-38v2.5zM209 108.5v2.5h42v-5h-42v2.5zM126 118.5v2.5h41v-5h-41v2.5zM196 118.5v2.5h43v-5h-43v2.5zM137 128.5v2.5h38v-5h-38v2.5zM189 128.5v2.5h38v-5h-38v2.5zM149 138.5v2.5h67v-5h-67v2.5zM161 148.5v2.5h42v-5h-42v2.5zM167 158.5v2.5h31v-5h-31v2.5zM168 168.5v2.5h29v-5h-29v2.5zM164 276.5v2.5h38v-5h-38v2.5zM150 286.5v2.5h62v-5h-62v2.5zM139 296.5v2.5h85v-5h-85v2.5zM129 306.5v2.5h109v-5H129v2.5zM123 316.5v2.5h120v-5H123v2.5zM112 326.5v2.5h138v-5H112v2.5z"/></svg>